<svg xmlns="http://www.w3.org/2000/svg" xml:space="preserve" width="24" height="24" aria-hidden="true" style="pointer-events:none;display:inherit;width:100%;height:100%"><path fill="#F03" d="M11.13 1.21c.48-.28 1.26-.28 1.74 0l8.01 4.64c.48.28.87.97.87 1.53v9.24c0 .56-.39 1.25-.87 1.53l-8.01 4.64c-.48.28-1.26.28-1.74 0l-8.01-4.64c-.48-.28-.87-.97-.87-1.53V7.38c0-.56.39-1.25.87-1.53l8.01-4.64z"/><path fill="#FFF" d="m10 15 5-3-5-3z"/><path fill="#FFF" d="M12 6c.11 0 .19.03.21.04l4.89 2.82c.05.03.14.2.14.37v5.67c0 .17-.09.34-.14.37l-4.9 2.83c-.03.01-.1.04-.21.04-.11 0-.19-.03-.21-.04l-4.9-2.83c-.05-.03-.15-.2-.15-.37V9.24c0-.17.1-.34.14-.37l4.9-2.83c.05-.01.12-.04.23-.04m0-1c-.25 0-.51.06-.71.18L6.39 8c-.4.23-.64.77-.64 1.24v5.67c0 .47.24 1 .64 1.24l4.9 2.83c.2.12.46.18.71.18.25 0 .51-.06.71-.18l4.9-2.83c.41-.24.64-.77.64-1.24V9.24c0-.47-.23-1-.64-1.24l-4.9-2.82c-.2-.12-.45-.18-.71-.18z"/></svg>